<mxfile host="app.diagrams.net" modified="2020-12-25T06:08:03.585Z" agent="5.0 (Windows NT 10.0; Win64; x64) AppleWebKit/537.36 (KHTML, like Gecko) Chrome/87.0.4280.60 YaBrowser/20.12.0.963 Yowser/2.5 Safari/537.36" etag="oY6uLBef5iQ05L14frX7" version="14.1.2" type="github">
  <diagram id="fqwPPGOWwitssMnaQBWr" name="Page-1">
    <mxGraphModel dx="1979" dy="1764" grid="1" gridSize="10" guides="1" tooltips="1" connect="1" arrows="1" fold="1" page="1" pageScale="1" pageWidth="827" pageHeight="1169" math="0" shadow="0">
      <root>
        <mxCell id="0" />
        <mxCell id="1" parent="0" />
        <mxCell id="G7OAe2jUIg64XprEoP3U-2" value="" style="endArrow=classic;html=1;exitX=0.033;exitY=0.963;exitDx=0;exitDy=0;exitPerimeter=0;entryX=1.017;entryY=0.613;entryDx=0;entryDy=0;entryPerimeter=0;" edge="1" parent="1" source="G7OAe2jUIg64XprEoP3U-33" target="G7OAe2jUIg64XprEoP3U-30">
          <mxGeometry width="50" height="50" relative="1" as="geometry">
            <mxPoint x="140" y="90" as="sourcePoint" />
            <mxPoint x="140" y="170" as="targetPoint" />
          </mxGeometry>
        </mxCell>
        <mxCell id="G7OAe2jUIg64XprEoP3U-4" value="Фишинг-подмены&lt;br&gt;(Электронное письмо)&amp;nbsp;" style="rounded=1;whiteSpace=wrap;html=1;" vertex="1" parent="1">
          <mxGeometry x="-30" y="330" width="120" height="60" as="geometry" />
        </mxCell>
        <mxCell id="G7OAe2jUIg64XprEoP3U-6" value="Фейковый сайты без https&amp;nbsp;" style="rounded=1;whiteSpace=wrap;html=1;" vertex="1" parent="1">
          <mxGeometry x="100" y="330" width="120" height="60" as="geometry" />
        </mxCell>
        <mxCell id="G7OAe2jUIg64XprEoP3U-7" value="&lt;span style=&quot;color: rgb(56 , 56 , 56) ; letter-spacing: 0.17px ; text-align: justify ; word-spacing: 1.7px ; background-color: rgb(255 , 255 , 255)&quot;&gt;&lt;font style=&quot;font-size: 12px&quot;&gt;bruteforce attack&lt;/font&gt;&lt;/span&gt;" style="rounded=1;whiteSpace=wrap;html=1;" vertex="1" parent="1">
          <mxGeometry x="-180" y="80" width="120" height="60" as="geometry" />
        </mxCell>
        <mxCell id="G7OAe2jUIg64XprEoP3U-9" value="" style="endArrow=classic;html=1;" edge="1" parent="1" target="G7OAe2jUIg64XprEoP3U-4">
          <mxGeometry width="50" height="50" relative="1" as="geometry">
            <mxPoint x="30" y="260" as="sourcePoint" />
            <mxPoint x="450" y="300" as="targetPoint" />
            <Array as="points" />
          </mxGeometry>
        </mxCell>
        <mxCell id="G7OAe2jUIg64XprEoP3U-13" value="" style="endArrow=classic;html=1;entryX=0.075;entryY=0.033;entryDx=0;entryDy=0;entryPerimeter=0;" edge="1" parent="1" target="G7OAe2jUIg64XprEoP3U-6">
          <mxGeometry width="50" height="50" relative="1" as="geometry">
            <mxPoint x="110" y="260" as="sourcePoint" />
            <mxPoint x="540" y="270" as="targetPoint" />
            <Array as="points" />
          </mxGeometry>
        </mxCell>
        <mxCell id="G7OAe2jUIg64XprEoP3U-14" value="" style="endArrow=classic;html=1;" edge="1" parent="1">
          <mxGeometry width="50" height="50" relative="1" as="geometry">
            <mxPoint x="360" as="sourcePoint" />
            <mxPoint x="360" y="80" as="targetPoint" />
          </mxGeometry>
        </mxCell>
        <mxCell id="G7OAe2jUIg64XprEoP3U-15" value="" style="endArrow=classic;html=1;" edge="1" parent="1">
          <mxGeometry width="50" height="50" relative="1" as="geometry">
            <mxPoint x="40" as="sourcePoint" />
            <mxPoint x="40" y="80" as="targetPoint" />
          </mxGeometry>
        </mxCell>
        <mxCell id="G7OAe2jUIg64XprEoP3U-16" value="" style="endArrow=classic;html=1;" edge="1" parent="1" target="G7OAe2jUIg64XprEoP3U-7">
          <mxGeometry width="50" height="50" relative="1" as="geometry">
            <mxPoint x="-120" as="sourcePoint" />
            <mxPoint x="440" y="250" as="targetPoint" />
            <Array as="points" />
          </mxGeometry>
        </mxCell>
        <mxCell id="G7OAe2jUIg64XprEoP3U-23" value="Восстановление пароля(Некоторые социальные сети дают возможность восстановить пароль по спец. вопросам )" style="rounded=1;whiteSpace=wrap;html=1;" vertex="1" parent="1">
          <mxGeometry x="-140" y="190" width="120" height="60" as="geometry" />
        </mxCell>
        <mxCell id="G7OAe2jUIg64XprEoP3U-26" value="" style="endArrow=classic;html=1;exitX=0.083;exitY=0.05;exitDx=0;exitDy=0;exitPerimeter=0;" edge="1" parent="1" source="G7OAe2jUIg64XprEoP3U-33" target="G7OAe2jUIg64XprEoP3U-23">
          <mxGeometry width="50" height="50" relative="1" as="geometry">
            <mxPoint y="141" as="sourcePoint" />
            <mxPoint x="440" y="210" as="targetPoint" />
          </mxGeometry>
        </mxCell>
        <mxCell id="G7OAe2jUIg64XprEoP3U-27" value="&lt;span&gt;Взлом страницы в социальной сети&lt;/span&gt;" style="shape=xor;whiteSpace=wrap;html=1;direction=north;" vertex="1" parent="1">
          <mxGeometry x="290" y="-150" width="140" height="110" as="geometry" />
        </mxCell>
        <mxCell id="G7OAe2jUIg64XprEoP3U-28" value="" style="endArrow=none;html=1;entryX=0.25;entryY=0.5;entryDx=0;entryDy=0;entryPerimeter=0;" edge="1" parent="1" target="G7OAe2jUIg64XprEoP3U-27">
          <mxGeometry width="50" height="50" relative="1" as="geometry">
            <mxPoint x="360" as="sourcePoint" />
            <mxPoint x="380" y="100" as="targetPoint" />
          </mxGeometry>
        </mxCell>
        <mxCell id="G7OAe2jUIg64XprEoP3U-29" value="" style="endArrow=none;html=1;" edge="1" parent="1">
          <mxGeometry width="50" height="50" relative="1" as="geometry">
            <mxPoint x="-120" as="sourcePoint" />
            <mxPoint x="820" as="targetPoint" />
          </mxGeometry>
        </mxCell>
        <mxCell id="G7OAe2jUIg64XprEoP3U-30" value="&lt;span&gt;Фишинг атака&lt;/span&gt;" style="shape=xor;whiteSpace=wrap;html=1;direction=north;" vertex="1" parent="1">
          <mxGeometry x="30" y="170" width="80" height="60" as="geometry" />
        </mxCell>
        <mxCell id="G7OAe2jUIg64XprEoP3U-31" value="" style="endArrow=none;html=1;" edge="1" parent="1">
          <mxGeometry width="50" height="50" relative="1" as="geometry">
            <mxPoint x="30" y="260" as="sourcePoint" />
            <mxPoint x="110" y="260" as="targetPoint" />
          </mxGeometry>
        </mxCell>
        <mxCell id="G7OAe2jUIg64XprEoP3U-32" value="" style="endArrow=none;html=1;exitX=0.25;exitY=0.5;exitDx=0;exitDy=0;exitPerimeter=0;" edge="1" parent="1" source="G7OAe2jUIg64XprEoP3U-30">
          <mxGeometry width="50" height="50" relative="1" as="geometry">
            <mxPoint x="330" y="180" as="sourcePoint" />
            <mxPoint x="70" y="260" as="targetPoint" />
          </mxGeometry>
        </mxCell>
        <mxCell id="G7OAe2jUIg64XprEoP3U-33" value="&lt;span&gt;Социальная инженерия&lt;/span&gt;" style="shape=xor;whiteSpace=wrap;html=1;direction=north;" vertex="1" parent="1">
          <mxGeometry y="80" width="80" height="60" as="geometry" />
        </mxCell>
        <mxCell id="G7OAe2jUIg64XprEoP3U-34" value="&lt;span style=&quot;color: rgb(56 , 56 , 56) ; letter-spacing: 0.17px ; text-align: justify ; word-spacing: 1.7px ; background-color: rgb(255 , 255 , 255)&quot;&gt;&lt;font style=&quot;font-size: 12px&quot;&gt;&amp;nbsp; keylogger&lt;/font&gt;&lt;/span&gt;&lt;span style=&quot;color: rgb(56 , 56 , 56) ; font-family: &amp;#34;slabo 27px&amp;#34; , &amp;#34;helvetica neue&amp;#34; , &amp;#34;helvetica&amp;#34; , &amp;#34;arial&amp;#34; , sans-serif ; font-size: 17px ; letter-spacing: 0.17px ; text-align: justify ; word-spacing: 1.7px ; background-color: rgb(255 , 255 , 255)&quot;&gt;&amp;nbsp;&lt;/span&gt;" style="shape=xor;whiteSpace=wrap;html=1;direction=north;" vertex="1" parent="1">
          <mxGeometry x="320" y="80" width="80" height="60" as="geometry" />
        </mxCell>
        <mxCell id="G7OAe2jUIg64XprEoP3U-35" value="" style="endArrow=classic;html=1;entryX=0.75;entryY=0;entryDx=0;entryDy=0;exitX=0.175;exitY=0.25;exitDx=0;exitDy=0;exitPerimeter=0;" edge="1" parent="1" source="G7OAe2jUIg64XprEoP3U-34" target="G7OAe2jUIg64XprEoP3U-39">
          <mxGeometry width="50" height="50" relative="1" as="geometry">
            <mxPoint x="322" y="140" as="sourcePoint" />
            <mxPoint x="322" y="190" as="targetPoint" />
          </mxGeometry>
        </mxCell>
        <mxCell id="G7OAe2jUIg64XprEoP3U-36" value="" style="endArrow=classic;html=1;exitX=0.033;exitY=0.975;exitDx=0;exitDy=0;exitPerimeter=0;entryX=0;entryY=0;entryDx=0;entryDy=0;" edge="1" parent="1" source="G7OAe2jUIg64XprEoP3U-34" target="G7OAe2jUIg64XprEoP3U-40">
          <mxGeometry width="50" height="50" relative="1" as="geometry">
            <mxPoint x="400" y="190" as="sourcePoint" />
            <mxPoint x="400" y="190" as="targetPoint" />
          </mxGeometry>
        </mxCell>
        <mxCell id="G7OAe2jUIg64XprEoP3U-39" value="hardware&amp;nbsp;&lt;span style=&quot;color: rgb(56 , 56 , 56) ; letter-spacing: 0.17px ; text-align: justify ; word-spacing: 1.7px ; background-color: rgb(255 , 255 , 255)&quot;&gt;&lt;font style=&quot;font-size: 12px&quot;&gt;keylogger&amp;nbsp;&lt;/font&gt;&lt;/span&gt;" style="rounded=1;whiteSpace=wrap;html=1;" vertex="1" parent="1">
          <mxGeometry x="250" y="190" width="120" height="60" as="geometry" />
        </mxCell>
        <mxCell id="G7OAe2jUIg64XprEoP3U-40" value="software" style="rounded=1;whiteSpace=wrap;html=1;" vertex="1" parent="1">
          <mxGeometry x="400" y="190" width="120" height="60" as="geometry" />
        </mxCell>
        <mxCell id="G7OAe2jUIg64XprEoP3U-41" value="&lt;span style=&quot;color: rgb(56 , 56 , 56) ; letter-spacing: 0.17px ; text-align: justify ; word-spacing: 1.7px ; background-color: rgb(255 , 255 , 255)&quot;&gt;&lt;font style=&quot;font-size: 12px&quot;&gt;DNS Spoofing&lt;/font&gt;&lt;/span&gt;" style="rounded=0;whiteSpace=wrap;html=1;" vertex="1" parent="1">
          <mxGeometry x="510" y="80" width="120" height="60" as="geometry" />
        </mxCell>
        <mxCell id="G7OAe2jUIg64XprEoP3U-42" value="" style="endArrow=classic;html=1;entryX=0.417;entryY=0.033;entryDx=0;entryDy=0;entryPerimeter=0;" edge="1" parent="1" target="G7OAe2jUIg64XprEoP3U-41">
          <mxGeometry width="50" height="50" relative="1" as="geometry">
            <mxPoint x="560" as="sourcePoint" />
            <mxPoint x="380" y="120" as="targetPoint" />
          </mxGeometry>
        </mxCell>
        <mxCell id="G7OAe2jUIg64XprEoP3U-43" value="&lt;h2 class=&quot;sectionHeadline&quot; style=&quot;margin: 0px 0px 0.5em ; padding: 0px ; border: 0px ; outline: 0px ; vertical-align: baseline ; letter-spacing: 0.01em ; line-height: 1.4em ; overflow-wrap: break-word ; position: relative ; text-shadow: rgba(100 , 100 , 100 , 0.35) 0px 1px 2px ; text-align: left&quot;&gt;&lt;font style=&quot;font-size: 12px ; background-color: rgb(255 , 255 , 255) ; font-weight: normal&quot;&gt;Cloning Old E-Mail&lt;/font&gt;&lt;/h2&gt;" style="rounded=1;whiteSpace=wrap;html=1;" vertex="1" parent="1">
          <mxGeometry x="650" y="80" width="120" height="60" as="geometry" />
        </mxCell>
        <mxCell id="G7OAe2jUIg64XprEoP3U-44" value="" style="endArrow=classic;html=1;entryX=0.433;entryY=0.017;entryDx=0;entryDy=0;entryPerimeter=0;" edge="1" parent="1" target="G7OAe2jUIg64XprEoP3U-43">
          <mxGeometry width="50" height="50" relative="1" as="geometry">
            <mxPoint x="700" as="sourcePoint" />
            <mxPoint x="740" y="40" as="targetPoint" />
          </mxGeometry>
        </mxCell>
        <mxCell id="G7OAe2jUIg64XprEoP3U-45" value="&lt;span style=&quot;color: rgb(32 , 33 , 34) ; font-size: 14px ; font-weight: 400 ; letter-spacing: normal ; text-indent: 0px ; text-transform: none ; word-spacing: 0px ; background-color: rgb(255 , 255 , 255)&quot;&gt;shoulder surfing&lt;/span&gt;" style="rounded=1;whiteSpace=wrap;html=1;arcSize=27;" vertex="1" parent="1">
          <mxGeometry x="120" y="180" width="90" height="50" as="geometry" />
        </mxCell>
        <mxCell id="G7OAe2jUIg64XprEoP3U-46" value="" style="endArrow=classic;html=1;exitX=0.117;exitY=0.925;exitDx=0;exitDy=0;exitPerimeter=0;" edge="1" parent="1" source="G7OAe2jUIg64XprEoP3U-33" target="G7OAe2jUIg64XprEoP3U-45">
          <mxGeometry width="50" height="50" relative="1" as="geometry">
            <mxPoint x="330" y="170" as="sourcePoint" />
            <mxPoint x="380" y="120" as="targetPoint" />
          </mxGeometry>
        </mxCell>
        <mxCell id="G7OAe2jUIg64XprEoP3U-47" style="edgeStyle=orthogonalEdgeStyle;rounded=0;orthogonalLoop=1;jettySize=auto;html=1;exitX=0.5;exitY=1;exitDx=0;exitDy=0;" edge="1" parent="1" source="G7OAe2jUIg64XprEoP3U-45" target="G7OAe2jUIg64XprEoP3U-45">
          <mxGeometry relative="1" as="geometry" />
        </mxCell>
      </root>
    </mxGraphModel>
  </diagram>
</mxfile>
